<svg xmlns="http://www.w3.org/2000/svg" data-name="Layer 1" viewBox="0 0 100 125" x="0px" y="0px"><title>User Interface</title><path d="M83.6,16.4a47.5,47.5,0,1,0,0,67.208A47.577,47.577,0,0,0,83.6,16.4ZM81.858,81.859a45.034,45.034,0,1,1,0-63.717A45.109,45.109,0,0,1,81.858,81.859Z"/><path d="M75.748,48.766H27.232L42.29,33.708a1.234,1.234,0,1,0-1.745-1.746L23.379,49.127c-.009.009-.011.022-.02.031a1.2,1.2,0,0,0-.341.842h0v0a1.228,1.228,0,0,0,.095.469,1.245,1.245,0,0,0,.267.4L40.545,68.039a1.234,1.234,0,1,0,1.745-1.745L27.232,51.234H75.748a1.234,1.234,0,0,0,0-2.468Z"/>
</svg>
