<svg xmlns="http://www.w3.org/2000/svg" xmlns:xlink="http://www.w3.org/1999/xlink" version="1.1" x="0px" y="0px" viewBox="0 0 48 60" style="enable-background:new 0 0 48 48;" xml:space="preserve"><path d="M44,11H4c-0.55,0-1,0.45-1,1v24c0,0.55,0.45,1,1,1h40c0.55,0,1-0.45,1-1V12C45,11.45,44.55,11,44,11z M37,13h2v2h-2V13z   M33,13h2v2h-2V13z M29,13h2v2h-2V13z M25,13h2v2h-2V13z M17,13h2v2h-2V13z M13,13h2v2h-2V13z M9,13h2v2H9V13z M5,13h2v2H5V13z   M7,35H5v-2h2V35z M11,35H9v-2h2V35z M15,35h-2v-2h2V35z M19,35h-2v-2h2V35z M23,35h-2v-2h2V35z M23,31H5V17h18V31z M23,15h-2v-2h2  V15z M27,35h-2v-2h2V35z M31,35h-2v-2h2V35z M35,35h-2v-2h2V35z M39,35h-2v-2h2V35z M43,35h-2v-2h2V35z M43,31H25V17h18V31z M43,15  h-2v-2h2V15z"/><text x="0" y="63" fill="#000000" font-size="5px" font-weight="bold" font-family="'Helvetica Neue', Helvetica, Arial-Unicode, Arial, Sans-serif">Created by fix project</text><text x="0" y="68" fill="#000000" font-size="5px" font-weight="bold" font-family="'Helvetica Neue', Helvetica, Arial-Unicode, Arial, Sans-serif">from the Noun Project</text></svg>