<svg xmlns="http://www.w3.org/2000/svg" xmlns:xlink="http://www.w3.org/1999/xlink" version="1.1" x="0px" y="0px" viewBox="0 0 34 42.5" enable-background="new 0 0 34 34" xml:space="preserve"><g><path d="M32.69638,14.18184c0.60999-0.63,0.25-1.68005-0.60999-1.82001l-9.22003-1.41003   c-0.35999-0.04999-0.65997-0.27997-0.81-0.59998L17.9664,1.62185c-0.38-0.83002-1.55005-0.83002-1.94,0l-4.08002,8.72998   c-0.16003,0.32001-0.46002,0.54999-0.81,0.59998l-9.23004,1.41003c-0.85999,0.13995-1.20996,1.19-0.59998,1.82001l6.73999,6.91998   c0.23999,0.25,0.34003,0.58997,0.29004,0.92999l-1.58002,9.71997c-0.15002,0.88,0.78998,1.55005,1.57001,1.11004l8.14996-4.51001   c0.33002-0.17999,0.72003-0.17999,1.04004,0l8.14996,4.51001c0.78003,0.44,1.72003-0.23004,1.58002-1.11004l-1.58002-9.71997   c-0.06-0.34003,0.05005-0.67999,0.29004-0.92999L32.69638,14.18184z"/></g><text x="0" y="49" fill="#000000" font-size="5px" font-weight="bold" font-family="'Helvetica Neue', Helvetica, Arial-Unicode, Arial, Sans-serif">Created by Vectors Point</text><text x="0" y="54" fill="#000000" font-size="5px" font-weight="bold" font-family="'Helvetica Neue', Helvetica, Arial-Unicode, Arial, Sans-serif">from the Noun Project</text></svg>